<svg xmlns="http://www.w3.org/2000/svg" xmlns:xlink="http://www.w3.org/1999/xlink" version="1.1" width="256" height="256" viewBox="0 0 256 256" xml:space="preserve">

<defs>
</defs>
<g style="stroke: none; stroke-width: 0; stroke-dasharray: none; stroke-linecap: butt; stroke-linejoin: miter; stroke-miterlimit: 10; fill: none; fill-rule: nonzero; opacity: 1;" transform="translate(1.4065934065934016 1.4065934065934016) scale(2.81 2.81)" >
	<path d="M 82.848 53.276 l -12.87 3.835 L 49 45 l 20.978 -12.112 l 12.869 3.835 c 0.19 0.057 0.383 0.084 0.572 0.084 c 0.861 0 1.657 -0.562 1.916 -1.429 c 0.315 -1.059 -0.287 -2.172 -1.346 -2.488 l -9.244 -2.755 l 8.493 -4.904 c 0.957 -0.552 1.284 -1.775 0.732 -2.732 c -0.554 -0.957 -1.777 -1.287 -2.732 -0.732 l -8.493 4.904 l 2.237 -9.383 c 0.256 -1.075 -0.407 -2.153 -1.481 -2.409 c -1.071 -0.257 -2.153 0.407 -2.409 1.481 l -3.114 13.064 L 47 41.536 V 17.312 l 9.756 -9.228 c 0.803 -0.759 0.838 -2.025 0.079 -2.828 c -0.76 -0.802 -2.024 -0.838 -2.827 -0.079 L 47 11.806 V 2 c 0 -1.104 -0.896 -2 -2 -2 s -2 0.896 -2 2 v 9.807 l -7.007 -6.628 c -0.802 -0.759 -2.068 -0.723 -2.828 0.079 c -0.759 0.803 -0.724 2.068 0.079 2.828 L 43 17.313 v 24.223 L 22.022 29.424 l -3.114 -13.063 c -0.256 -1.074 -1.331 -1.736 -2.409 -1.481 c -1.074 0.256 -1.738 1.334 -1.481 2.409 l 2.237 9.383 l -8.493 -4.903 c -0.957 -0.554 -2.18 -0.225 -2.732 0.732 c -0.552 0.957 -0.225 2.18 0.732 2.732 l 8.493 4.904 L 6.01 32.89 c -1.059 0.315 -1.661 1.429 -1.345 2.488 c 0.258 0.868 1.054 1.429 1.916 1.429 c 0.189 0 0.382 -0.027 0.572 -0.084 l 12.869 -3.835 L 41 45 L 20.022 57.111 L 7.152 53.276 c -1.056 -0.314 -2.173 0.286 -2.488 1.346 c -0.315 1.059 0.287 2.173 1.345 2.488 l 9.243 2.754 l -8.492 4.903 C 5.804 65.32 5.477 66.543 6.029 67.5 c 0.37 0.642 1.042 1 1.734 1 c 0.339 0 0.683 -0.086 0.998 -0.268 l 8.493 -4.903 l -2.236 9.382 c -0.256 1.074 0.407 2.153 1.481 2.409 c 0.156 0.037 0.312 0.055 0.465 0.055 c 0.905 0 1.725 -0.618 1.944 -1.536 l 3.114 -13.062 L 43 48.464 v 24.223 l -9.756 9.229 c -0.802 0.759 -0.837 2.025 -0.079 2.827 c 0.394 0.416 0.923 0.626 1.454 0.626 c 0.493 0 0.987 -0.182 1.374 -0.547 L 43 78.194 V 88 c 0 1.104 0.896 2 2 2 s 2 -0.896 2 -2 v -9.806 l 7.008 6.628 c 0.387 0.365 0.881 0.547 1.374 0.547 c 0.53 0 1.06 -0.21 1.453 -0.626 c 0.759 -0.802 0.724 -2.068 -0.079 -2.827 L 47 72.688 V 48.464 l 20.978 12.112 l 3.114 13.063 c 0.219 0.919 1.039 1.536 1.943 1.536 c 0.154 0 0.31 -0.018 0.466 -0.055 c 1.074 -0.256 1.737 -1.335 1.481 -2.409 l -2.236 -9.382 l 8.493 4.904 c 0.315 0.182 0.659 0.268 0.998 0.268 c 0.691 0 1.363 -0.358 1.734 -1 c 0.552 -0.957 0.225 -2.18 -0.732 -2.732 l -8.492 -4.903 l 9.243 -2.754 c 1.059 -0.315 1.661 -1.43 1.346 -2.488 C 85.021 53.563 83.903 52.962 82.848 53.276 z" style="stroke: none; stroke-width: 1; stroke-dasharray: none; stroke-linecap: butt; stroke-linejoin: miter; stroke-miterlimit: 10; fill: rgb(123,216,247); fill-rule: nonzero; opacity: 1;" transform=" matrix(1 0 0 1 0 0) " stroke-linecap="round" />
</g>
</svg>